<svg width="100" height="100" viewBox="0 0 100 100" fill="none" xmlns="http://www.w3.org/2000/svg">
<path d="M100 93C100 96.866 96.866 100 93 100H7C3.13401 100 0 96.866 0 93V64C0 60.134 3.13401 57 7 57H93C96.866 57 100 60.134 100 64V93ZM54 41C54 44.866 50.866 48 47 48H7C3.13401 48 0 44.866 0 41V7C0 3.13401 3.13401 0 7 0H47C50.866 0 54 3.13401 54 7V41ZM100 41C100 44.866 96.866 48 93 48H71C67.134 48 64 44.866 64 41V7C64 3.13401 67.134 0 71 0H93C96.866 0 100 3.13401 100 7V41Z" fill="white"/>
</svg>
